<mxfile host="app.diagrams.net" agent="Mozilla/5.0 (Windows NT 10.0; Win64; x64) AppleWebKit/537.36 (KHTML, like Gecko) Chrome/135.0.0.0 Safari/537.36" version="26.2.14">
  <diagram name="PÃ¡gina-1" id="ulxrdwzl4fqDs6QAwZyb">
    <mxGraphModel dx="1426" dy="777" grid="1" gridSize="10" guides="1" tooltips="1" connect="1" arrows="1" fold="1" page="1" pageScale="1" pageWidth="827" pageHeight="1169" math="0" shadow="0">
      <root>
        <mxCell id="0" />
        <mxCell id="1" parent="0" />
        <mxCell id="4PLE13W6dJt-NCHYSYC8-1" value="" style="edgeStyle=orthogonalEdgeStyle;rounded=0;orthogonalLoop=1;jettySize=auto;html=1;" edge="1" parent="1" source="4PLE13W6dJt-NCHYSYC8-2" target="4PLE13W6dJt-NCHYSYC8-3">
          <mxGeometry relative="1" as="geometry" />
        </mxCell>
        <mxCell id="4PLE13W6dJt-NCHYSYC8-2" value="INICIO" style="strokeWidth=2;html=1;shape=mxgraph.flowchart.start_1;whiteSpace=wrap;fillColor=#d5e8d4;strokeColor=#82b366;" vertex="1" parent="1">
          <mxGeometry x="360" y="370" width="100" height="60" as="geometry" />
        </mxCell>
        <mxCell id="4PLE13W6dJt-NCHYSYC8-7" value="" style="edgeStyle=orthogonalEdgeStyle;rounded=0;orthogonalLoop=1;jettySize=auto;html=1;" edge="1" parent="1" source="4PLE13W6dJt-NCHYSYC8-3" target="4PLE13W6dJt-NCHYSYC8-6">
          <mxGeometry relative="1" as="geometry" />
        </mxCell>
        <mxCell id="4PLE13W6dJt-NCHYSYC8-3" value="&lt;div&gt;&lt;br&gt;&lt;/div&gt;A[ ]&lt;div&gt;&lt;br&gt;&lt;/div&gt;&lt;div&gt;X&lt;/div&gt;" style="html=1;strokeWidth=2;shape=manualInput;whiteSpace=wrap;rounded=1;size=26;arcSize=11;fillColor=#dae8fc;strokeColor=#6c8ebf;" vertex="1" parent="1">
          <mxGeometry x="360" y="460" width="100" height="60" as="geometry" />
        </mxCell>
        <mxCell id="4PLE13W6dJt-NCHYSYC8-9" value="" style="edgeStyle=orthogonalEdgeStyle;rounded=0;orthogonalLoop=1;jettySize=auto;html=1;" edge="1" parent="1" source="4PLE13W6dJt-NCHYSYC8-13">
          <mxGeometry relative="1" as="geometry">
            <mxPoint x="410" y="740" as="targetPoint" />
          </mxGeometry>
        </mxCell>
        <mxCell id="4PLE13W6dJt-NCHYSYC8-6" value="I = 1&lt;div&gt;MENORES&lt;span style=&quot;background-color: transparent; color: light-dark(rgb(51, 51, 51), rgb(193, 193, 193));&quot;&gt;&amp;nbsp;= 0&lt;/span&gt;&lt;/div&gt;" style="rounded=1;whiteSpace=wrap;html=1;absoluteArcSize=1;arcSize=14;strokeWidth=2;fillColor=#f5f5f5;fontColor=#333333;strokeColor=#666666;" vertex="1" parent="1">
          <mxGeometry x="360" y="554.5" width="100" height="60" as="geometry" />
        </mxCell>
        <mxCell id="4PLE13W6dJt-NCHYSYC8-14" value="" style="edgeStyle=orthogonalEdgeStyle;rounded=0;orthogonalLoop=1;jettySize=auto;html=1;" edge="1" parent="1" source="4PLE13W6dJt-NCHYSYC8-6" target="4PLE13W6dJt-NCHYSYC8-13">
          <mxGeometry relative="1" as="geometry">
            <mxPoint x="410" y="615" as="sourcePoint" />
            <mxPoint x="400" y="740" as="targetPoint" />
          </mxGeometry>
        </mxCell>
        <mxCell id="4PLE13W6dJt-NCHYSYC8-13" value="CALCULA TAMANHO DO VETOR A" style="rounded=1;whiteSpace=wrap;html=1;absoluteArcSize=1;arcSize=14;strokeWidth=2;fillColor=#f5f5f5;fontColor=#333333;strokeColor=#666666;" vertex="1" parent="1">
          <mxGeometry x="360" y="640" width="100" height="60" as="geometry" />
        </mxCell>
        <mxCell id="4PLE13W6dJt-NCHYSYC8-18" value="" style="edgeStyle=orthogonalEdgeStyle;rounded=0;orthogonalLoop=1;jettySize=auto;html=1;" edge="1" parent="1" source="4PLE13W6dJt-NCHYSYC8-15" target="4PLE13W6dJt-NCHYSYC8-17">
          <mxGeometry relative="1" as="geometry" />
        </mxCell>
        <mxCell id="4PLE13W6dJt-NCHYSYC8-15" value="I=1, I &amp;lt;=TAMANHO, I++" style="shape=hexagon;perimeter=hexagonPerimeter2;whiteSpace=wrap;html=1;fixedSize=1;fillColor=#fff2cc;strokeColor=#d6b656;" vertex="1" parent="1">
          <mxGeometry x="325" y="740" width="170" height="40" as="geometry" />
        </mxCell>
        <mxCell id="4PLE13W6dJt-NCHYSYC8-22" value="" style="edgeStyle=orthogonalEdgeStyle;rounded=0;orthogonalLoop=1;jettySize=auto;html=1;" edge="1" parent="1" source="4PLE13W6dJt-NCHYSYC8-17" target="4PLE13W6dJt-NCHYSYC8-21">
          <mxGeometry relative="1" as="geometry" />
        </mxCell>
        <mxCell id="4PLE13W6dJt-NCHYSYC8-23" value="N" style="edgeLabel;html=1;align=center;verticalAlign=middle;resizable=0;points=[];" vertex="1" connectable="0" parent="4PLE13W6dJt-NCHYSYC8-22">
          <mxGeometry x="-0.32" y="-1" relative="1" as="geometry">
            <mxPoint as="offset" />
          </mxGeometry>
        </mxCell>
        <mxCell id="4PLE13W6dJt-NCHYSYC8-17" value="A[I]&lt;div&gt;&amp;gt;&lt;/div&gt;&lt;div&gt;X&lt;/div&gt;" style="rhombus;whiteSpace=wrap;html=1;fillColor=#fff2cc;strokeColor=#d6b656;" vertex="1" parent="1">
          <mxGeometry x="370" y="840" width="80" height="80" as="geometry" />
        </mxCell>
        <mxCell id="4PLE13W6dJt-NCHYSYC8-21" value="MENORES = MENORES + 1" style="whiteSpace=wrap;html=1;fillColor=#f5f5f5;strokeColor=#666666;fontColor=#333333;" vertex="1" parent="1">
          <mxGeometry x="320" y="970" width="180" height="60" as="geometry" />
        </mxCell>
        <mxCell id="4PLE13W6dJt-NCHYSYC8-26" style="edgeStyle=orthogonalEdgeStyle;rounded=0;orthogonalLoop=1;jettySize=auto;html=1;exitX=0.5;exitY=0;exitDx=0;exitDy=0;exitPerimeter=0;entryX=0;entryY=0.5;entryDx=0;entryDy=0;" edge="1" parent="1" source="4PLE13W6dJt-NCHYSYC8-24" target="4PLE13W6dJt-NCHYSYC8-15">
          <mxGeometry relative="1" as="geometry" />
        </mxCell>
        <mxCell id="4PLE13W6dJt-NCHYSYC8-24" value="" style="verticalLabelPosition=bottom;verticalAlign=top;html=1;shape=mxgraph.flowchart.on-page_reference;fillColor=#f5f5f5;gradientColor=#b3b3b3;strokeColor=#666666;" vertex="1" parent="1">
          <mxGeometry x="280" y="865" width="30" height="30" as="geometry" />
        </mxCell>
        <mxCell id="4PLE13W6dJt-NCHYSYC8-25" style="edgeStyle=orthogonalEdgeStyle;rounded=0;orthogonalLoop=1;jettySize=auto;html=1;exitX=0;exitY=0.5;exitDx=0;exitDy=0;entryX=1;entryY=0.5;entryDx=0;entryDy=0;entryPerimeter=0;" edge="1" parent="1" source="4PLE13W6dJt-NCHYSYC8-17" target="4PLE13W6dJt-NCHYSYC8-24">
          <mxGeometry relative="1" as="geometry" />
        </mxCell>
        <mxCell id="4PLE13W6dJt-NCHYSYC8-27" value="S" style="edgeLabel;html=1;align=center;verticalAlign=middle;resizable=0;points=[];" vertex="1" connectable="0" parent="4PLE13W6dJt-NCHYSYC8-25">
          <mxGeometry x="-0.1" y="6" relative="1" as="geometry">
            <mxPoint as="offset" />
          </mxGeometry>
        </mxCell>
        <mxCell id="4PLE13W6dJt-NCHYSYC8-28" style="edgeStyle=orthogonalEdgeStyle;rounded=0;orthogonalLoop=1;jettySize=auto;html=1;exitX=0;exitY=0.5;exitDx=0;exitDy=0;entryX=0.5;entryY=1;entryDx=0;entryDy=0;entryPerimeter=0;" edge="1" parent="1" source="4PLE13W6dJt-NCHYSYC8-21" target="4PLE13W6dJt-NCHYSYC8-24">
          <mxGeometry relative="1" as="geometry" />
        </mxCell>
        <mxCell id="4PLE13W6dJt-NCHYSYC8-33" value="" style="edgeStyle=orthogonalEdgeStyle;rounded=0;orthogonalLoop=1;jettySize=auto;html=1;" edge="1" parent="1" source="4PLE13W6dJt-NCHYSYC8-30" target="4PLE13W6dJt-NCHYSYC8-32">
          <mxGeometry relative="1" as="geometry" />
        </mxCell>
        <mxCell id="4PLE13W6dJt-NCHYSYC8-30" value="" style="verticalLabelPosition=bottom;verticalAlign=top;html=1;shape=mxgraph.flowchart.on-page_reference;fillColor=#f5f5f5;gradientColor=#b3b3b3;strokeColor=#666666;" vertex="1" parent="1">
          <mxGeometry x="395" y="1080" width="30" height="30" as="geometry" />
        </mxCell>
        <mxCell id="4PLE13W6dJt-NCHYSYC8-31" style="edgeStyle=orthogonalEdgeStyle;rounded=0;orthogonalLoop=1;jettySize=auto;html=1;exitX=1;exitY=0.5;exitDx=0;exitDy=0;entryX=1;entryY=0.5;entryDx=0;entryDy=0;entryPerimeter=0;" edge="1" parent="1" source="4PLE13W6dJt-NCHYSYC8-15" target="4PLE13W6dJt-NCHYSYC8-30">
          <mxGeometry relative="1" as="geometry" />
        </mxCell>
        <mxCell id="4PLE13W6dJt-NCHYSYC8-32" value="FIM" style="strokeWidth=2;html=1;shape=mxgraph.flowchart.start_1;whiteSpace=wrap;fillColor=#d5e8d4;strokeColor=#82b366;" vertex="1" parent="1">
          <mxGeometry x="360" y="1150" width="100" height="60" as="geometry" />
        </mxCell>
      </root>
    </mxGraphModel>
  </diagram>
</mxfile>
